<?xml version="1.0" encoding="UTF-8"?><svg id="Layer_1" xmlns="http://www.w3.org/2000/svg" width="19.71" height="19.12" viewBox="0 0 19.71 19.12"><defs><style>.cls-1{fill:#f0f0f1;}</style></defs><g id="PB"><path class="cls-1" d="M19.71,9.78c-.12,2.16-1.71,3.79-3.62,4.32-1.27.36-2.68.23-3.88-.55-.22-.14-.95-.82-1.52-1.42l-.29-.31-.66-.71-.6-.64-.03-.03-2.77-3.07c-.82-.56-1.73-.61-2.51-.31-1.28.48-2.19,1.88-1.73,3.45.28.94.95,1.54,1.73,1.81,1.5.52,3.43-.16,3.88-1.94.13.06,1.26,1.39,1.32,1.54.12.33-.81,1.28-1.1,1.52-1.16.97-2.64,1.29-4.1.99-.1-.02-.21-.05-.31-.07-.52-.14-1.01-.53-1.55-.58v3.6H0v-8.47c0-.1.19-.7.24-.85.53-1.58,1.98-2.75,3.59-3.12,1.17-.28,2.43-.12,3.47.61.24.16,1.17,1.12,1.82,1.86l.14.16,1.18,1.33.25.28c1.03,1.17,2.12,2.66,3.61,2.84.67.08,1.28-.01,1.79-.24,1.86-.78,2.47-3.16.44-4.61-.14-.1-.29-.19-.44-.26-1.84-.9-3.96.39-4.16,2.49l-1.97-2.35V1.74h1.97v3.71c.58-.12,1.06-.57,1.62-.73.87-.25,1.73-.22,2.54.01,2.12.62,3.75,2.71,3.62,5.05Z"/></g></svg>